<?xml version="1.0" standalone="no"?>
<!DOCTYPE svg PUBLIC "-//W3C//DTD SVG 20010904//EN"
 "http://www.w3.org/TR/2001/REC-SVG-20010904/DTD/svg10.dtd">
<svg version="1.0" xmlns="http://www.w3.org/2000/svg"
 width="1080.000000pt" height="1080.000000pt" viewBox="0 0 1080.000000 1080.000000"
 preserveAspectRatio="xMidYMid meet">

<g transform="translate(0.000000,1080.000000) scale(0.100000,-0.100000)"
fill="#000000" stroke="none">
<path d="M1502 10789 c-112 -13 -277 -53 -387 -94 -419 -155 -761 -467 -950
-868 -88 -188 -134 -354 -155 -562 -8 -79 -10 -1197 -8 -3945 l3 -3835 27
-121 c122 -541 459 -971 941 -1199 188 -88 354 -134 562 -155 79 -8 1197 -10
3945 -8 l3835 3 121 27 c540 121 963 452 1194 933 92 192 139 357 160 570 8
79 10 1197 8 3945 l-3 3835 -27 121 c-167 746 -746 1270 -1493 1354 -112 12
-7666 11 -7773 -1z m6938 -2093 c0 -3 -93 -231 -206 -508 -113 -277 -208 -509
-211 -515 -4 -10 -318 -13 -1524 -13 l-1519 0 -5 -22 c-4 -13 -118 -439 -254
-948 l-247 -925 1107 -5 1107 -5 -212 -517 -211 -518 -1039 -2 -1039 -3 -347
-1305 -347 -1305 -567 -3 -568 -2 6 27 c4 16 339 1268 744 2783 l738 2755 566
3 c529 2 567 3 572 20 3 9 64 233 136 497 72 264 133 488 136 498 5 16 90 17
1595 17 874 0 1589 -2 1589 -4z"/>
</g>
</svg>
